<?xml version="1.0" standalone="no"?>
<!DOCTYPE svg PUBLIC "-//W3C//DTD SVG 20010904//EN"
 "http://www.w3.org/TR/2001/REC-SVG-20010904/DTD/svg10.dtd">
<svg version="1.0" xmlns="http://www.w3.org/2000/svg"
 width="700.000000pt" height="700.000000pt" viewBox="0 0 700.000000 700.000000"
 preserveAspectRatio="xMidYMid meet">
<metadata>
Created by potrace 1.14, written by Peter Selinger 2001-2017
</metadata>
<g transform="translate(0.000000,700.000000) scale(0.100000,-0.100000)"
fill="#000000" stroke="none">
<path d="M3454 6927 c-22 -39 -211 -367 -419 -727 -506 -876 -530 -918 -690
-1195 -76 -132 -245 -424 -375 -650 -130 -225 -280 -484 -332 -575 -52 -91
-231 -400 -397 -687 -165 -287 -301 -526 -301 -530 0 -5 576 -584 1280 -1288
l1280 -1280 1283 1283 1282 1282 -24 43 c-40 70 -760 1318 -1049 1817 -90 157
-174 301 -185 320 -10 19 -36 64 -57 100 -21 36 -48 84 -61 107 -189 332
-1185 2053 -1189 2053 -3 0 -23 -33 -46 -73z"/>
</g>
</svg>
